# xmcd
#
# Track frame offsets:
#	150
#	12532
#	21740
#	32307
#	43102
#	53542
#	65495
#	75635
#	86272
#	99697
#
# Disc length: 1477 seconds
#
# Revision: 1
# Processed by: cddbd v1.4PL0 Copyright (c) Steve Scherf et al.
# Submitted via: audiograbber 1.80.04
#
DISCID=7605c30a
DTITLE=Crystal Gayle - Crystal Gayle
DYEAR=1978
DGENRE=Country
TTITLE0=i've cried (the blue right out of my eyes)
TTITLE1=sparklin' look of love
TTITLE2=everybody oughto cry
TTITLE3=mama it's different this time
TTITLE4=touching me again
TTITLE5=show me how
TTITLE6=M.R.S. degree
TTITLE7=i hope you're havin' better luck than me
TTITLE8=too far
TTITLE9=clock on the wall
EXTD=
EXTT0=
EXTT1=
EXTT2=
EXTT3=
EXTT4=
EXTT5=
EXTT6=
EXTT7=
EXTT8=
EXTT9=
PLAYORDER=
